<svg id="SvgjsSvg1069" width="288" height="288" xmlns="http://www.w3.org/2000/svg" version="1.1" xmlns:xlink="http://www.w3.org/1999/xlink" xmlns:svgjs="http://svgjs.com/svgjs"><defs id="SvgjsDefs1070"></defs><g id="SvgjsG1071"><svg xmlns="http://www.w3.org/2000/svg" xmlns:svgjs="http://svgjs.com/svgjs" xmlns:xlink="http://www.w3.org/1999/xlink" width="288" height="288"><svg xmlns="http://www.w3.org/2000/svg" xmlns:svgjs="http://svgjs.com/svgjs" xmlns:xlink="http://www.w3.org/1999/xlink" width="288" height="288"><svg xmlns="http://www.w3.org/2000/svg" width="288" height="288" enable-background="new 0 0 477.863 477.863" viewBox="0 0 477.863 477.863"><path fill="#a0aec0" d="M409.598,153.596h-85.333c-9.426,0-17.067,7.641-17.067,17.067s7.641,17.067,17.067,17.067h85.333			c9.426,0,17.067,7.641,17.067,17.067v221.867c0,9.426-7.641,17.067-17.067,17.067H68.265c-9.426,0-17.067-7.641-17.067-17.067			V204.796c0-9.426,7.641-17.067,17.067-17.067h85.333c9.426,0,17.067-7.641,17.067-17.067s-7.641-17.067-17.067-17.067H68.265
			c-28.277,0-51.2,22.923-51.2,51.2v221.867c0,28.277,22.923,51.2,51.2,51.2h341.333c28.277,0,51.2-22.923,51.2-51.2V204.796
			C460.798,176.519,437.875,153.596,409.598,153.596z" class="color000 svgShape colorfff color62727e"></path><path fill="#a0aec0" d="M336.331,90.33L250.998,4.997c-6.664-6.663-17.468-6.663-24.132,0L141.532,90.33c-6.548,6.78-6.36,17.584,0.42,24.132
			c6.614,6.388,17.099,6.388,23.713,0l56.201-56.201V341.33c0,9.426,7.641,17.067,17.067,17.067s17.067-7.641,17.067-17.067V58.262
			l56.201,56.201c6.78,6.548,17.584,6.36,24.132-0.42C342.719,107.429,342.719,96.944,336.331,90.33z" class="color000 svgShape colorfff color62727e"></path></svg></svg></svg></g></svg>